<svg width="127" height="48" viewBox="0 0 127 48" fill="none" xmlns="http://www.w3.org/2000/svg">
<path d="M27.1506 11.8838C27.1253 11.7068 26.9736 11.6057 26.8472 11.6057C26.7208 11.6057 24.2181 11.5551 24.2181 11.5551C24.2181 11.5551 22.1199 9.53273 21.9177 9.30521C21.7154 9.10297 21.3109 9.15353 21.1593 9.20409C21.1593 9.20409 20.7548 9.33049 20.0975 9.53273C19.9964 9.17881 19.8194 8.74905 19.5919 8.29401C18.8588 6.87834 17.7465 6.11994 16.4319 6.11994C16.3308 6.11994 16.255 6.11994 16.1538 6.14522C16.1033 6.09466 16.078 6.0441 16.0274 6.01882C15.446 5.41211 14.7129 5.10875 13.8281 5.13403C12.1343 5.18459 10.4406 6.4233 9.05019 8.59737C8.08956 10.1394 7.35644 12.0607 7.12892 13.5522C5.18237 14.1589 3.81726 14.5887 3.7667 14.5887C2.78079 14.8921 2.75551 14.9173 2.62911 15.8527C2.57855 16.5605 0 36.5064 0 36.5064L21.6396 40.2478L31.0184 37.922C30.9931 37.922 27.1759 12.0607 27.1506 11.8838ZM19.0105 9.88665C18.5049 10.0383 17.9487 10.2153 17.342 10.4175C17.342 9.55801 17.2156 8.34457 16.8364 7.33338C18.1257 7.53562 18.7577 9.00185 19.0105 9.88665ZM16.2044 10.7462C15.0668 11.1001 13.8281 11.4793 12.5894 11.8585C12.9433 10.5186 13.6006 9.20409 14.4095 8.31929C14.7129 7.99065 15.1426 7.63674 15.623 7.4345C16.1286 8.42041 16.2297 9.81081 16.2044 10.7462ZM13.8787 6.27162C14.2831 6.27162 14.6118 6.34746 14.8898 6.5497C14.4348 6.77722 13.9798 7.13114 13.5753 7.58618C12.4883 8.74905 11.654 10.5439 11.3254 12.2882C10.2889 12.6169 9.27771 12.9202 8.36764 13.1983C8.97435 10.4428 11.2748 6.34746 13.8787 6.27162Z" fill="#95BF47"/>
<path d="M26.8483 11.6059C26.7219 11.6059 24.2192 11.5553 24.2192 11.5553C24.2192 11.5553 22.1209 9.53293 21.9187 9.30541C21.8429 9.22957 21.7417 9.17901 21.6406 9.17901V40.248L31.0195 37.9222C31.0195 37.9222 27.2022 12.0609 27.1769 11.884C27.1264 11.707 26.9747 11.6059 26.8483 11.6059Z" fill="#5E8E3E"/>
<path d="M16.4318 16.4339L15.3447 20.504C15.3447 20.504 14.1313 19.9478 12.6904 20.049C10.5668 20.1754 10.5668 21.5152 10.5668 21.8438C10.6932 23.664 15.4711 24.0685 15.7492 28.3408C15.9515 31.703 13.9796 34.0035 11.0977 34.1804C7.65966 34.3574 5.76367 32.335 5.76367 32.335L6.49679 29.2256C6.49679 29.2256 8.41806 30.6665 9.93485 30.5654C10.9208 30.5148 11.3 29.6806 11.2494 29.1244C11.0977 26.7481 7.20462 26.8998 6.95183 22.9814C6.74959 19.695 8.89838 16.3834 13.651 16.08C15.4964 15.9536 16.4318 16.4339 16.4318 16.4339Z" fill="white"/>
<path d="M43.7082 25.1053C42.6212 24.5239 42.065 24.0183 42.065 23.3357C42.065 22.4762 42.8487 21.92 44.0621 21.92C45.4778 21.92 46.7418 22.5015 46.7418 22.5015L47.7277 19.4679C47.7277 19.4679 46.8176 18.7601 44.1379 18.7601C40.3965 18.7601 37.7927 20.9089 37.7927 23.9172C37.7927 25.6362 39.0061 26.9255 40.624 27.8608C41.9386 28.5939 42.3936 29.1248 42.3936 29.9085C42.3936 30.7174 41.7364 31.3747 40.5229 31.3747C38.7281 31.3747 37.009 30.4394 37.009 30.4394L35.9473 33.4729C35.9473 33.4729 37.5146 34.5347 40.169 34.5347C44.0115 34.5347 46.7923 32.6387 46.7923 29.2259C46.7671 27.3805 45.3767 26.0659 43.7082 25.1053Z" fill="black"/>
<path d="M59.0279 18.7097C57.1319 18.7097 55.6404 19.6198 54.5028 20.9849L54.4522 20.9596L56.0954 12.3645H51.8231L47.6519 34.2568H51.9242L53.3399 26.774C53.8961 23.9427 55.3623 22.1983 56.7274 22.1983C57.688 22.1983 58.0672 22.8556 58.0672 23.791C58.0672 24.3724 58.0167 25.1055 57.8903 25.687L56.2724 34.2568H60.5447L62.2131 25.4089C62.3901 24.4735 62.5165 23.3612 62.5165 22.6028C62.5418 20.176 61.2778 18.7097 59.0279 18.7097Z" fill="black"/>
<path d="M72.2236 18.7093C67.0665 18.7093 63.6537 23.3608 63.6537 28.5432C63.6537 31.8549 65.7014 34.5345 69.5439 34.5345C74.5999 34.5345 78.0127 30.0095 78.0127 24.7007C78.038 21.6418 76.2431 18.7093 72.2236 18.7093ZM70.1254 31.2734C68.6591 31.2734 68.0524 30.0347 68.0524 28.4674C68.0524 26.0152 69.3164 22.021 71.6422 22.021C73.159 22.021 73.6646 23.3356 73.6646 24.5996C73.6646 27.2287 72.3753 31.2734 70.1254 31.2734Z" fill="black"/>
<path d="M88.9847 18.7093C86.1028 18.7093 84.4596 21.2626 84.4596 21.2626H84.4091L84.6619 18.9621H80.8699C80.6929 20.5042 80.339 22.8805 80.0104 24.6501L77.0274 40.3236H81.2997L82.4878 33.9784H82.5889C82.5889 33.9784 83.4737 34.5345 85.0916 34.5345C90.1223 34.5345 93.4087 29.3775 93.4087 24.1698C93.4087 21.2879 92.1194 18.7093 88.9847 18.7093ZM84.8894 31.324C83.7771 31.324 83.1198 30.692 83.1198 30.692L83.8276 26.6978C84.3332 24.0181 85.7236 22.2485 87.2151 22.2485C88.5297 22.2485 88.9342 23.462 88.9342 24.5996C88.9342 27.3803 87.291 31.324 84.8894 31.324Z" fill="black"/>
<path d="M99.5257 12.5666C98.1606 12.5666 97.0736 13.6537 97.0736 15.0441C97.0736 16.308 97.8825 17.1928 99.0959 17.1928H99.1465C100.486 17.1928 101.624 16.2828 101.649 14.7154C101.649 13.4767 100.815 12.5666 99.5257 12.5666Z" fill="black"/>
<path d="M93.5346 34.2313H97.8069L100.714 19.0634H96.4165L93.5346 34.2313Z" fill="black"/>
<path d="M111.61 19.0384H108.626L108.778 18.3305C109.031 16.8643 109.89 15.575 111.331 15.575C112.09 15.575 112.697 15.8026 112.697 15.8026L113.531 12.4403C113.531 12.4403 112.798 12.0611 111.205 12.0611C109.688 12.0611 108.171 12.4909 107.009 13.4768C105.542 14.7155 104.86 16.5104 104.531 18.3305L104.405 19.0384H102.408L101.776 22.2742H103.773L101.498 34.2569H105.77L108.045 22.2742H111.003L111.61 19.0384Z" fill="black"/>
<path d="M121.923 19.0634C121.923 19.0634 119.244 25.8131 118.056 29.504H118.005C117.929 28.3158 116.943 19.0634 116.943 19.0634H112.444L115.022 32.9926C115.073 33.296 115.047 33.4982 114.921 33.7005C114.415 34.6611 113.581 35.5964 112.595 36.279C111.786 36.8604 110.876 37.2396 110.168 37.4924L111.356 41.1327C112.216 40.9558 114.036 40.2227 115.553 38.807C117.499 36.9868 119.32 34.1555 121.165 30.313L126.398 19.0634H121.923Z" fill="black"/>
</svg>
