<svg width="144" height="48" viewBox="0 0 144 48" fill="none" xmlns="http://www.w3.org/2000/svg">
<g clip-path="url(#clip0_510_1301)">
<path d="M53.7123 12.7716H45.8371C45.2982 12.7716 44.8399 13.1631 44.7559 13.6951L41.5708 33.8892C41.5074 34.2877 41.816 34.6469 42.2202 34.6469H45.9799C46.5188 34.6469 46.9771 34.2554 47.0612 33.7223L47.9202 28.2756C48.0031 27.7425 48.4626 27.3509 49.0003 27.3509H51.4934C56.6809 27.3509 59.6749 24.8406 60.4568 19.8661C60.8091 17.6897 60.4717 15.9797 59.4526 14.7822C58.3334 13.4671 56.3482 12.7716 53.7123 12.7716ZM54.6209 20.1471C54.1902 22.9729 52.0311 22.9729 49.9434 22.9729H48.7551L49.5888 17.6955C49.6383 17.3765 49.9146 17.1416 50.2371 17.1416H50.7817C52.2039 17.1416 53.5454 17.1416 54.2386 17.9523C54.652 18.4359 54.7786 19.1545 54.6209 20.1471Z" fill="#253B80"/>
<path d="M77.2529 20.0561H73.4817C73.1605 20.0561 72.8829 20.291 72.8334 20.61L72.6665 21.6647L72.4028 21.2824C71.5863 20.0975 69.7658 19.7014 67.9487 19.7014C63.7814 19.7014 60.222 22.8577 59.5288 27.2853C59.1684 29.4939 59.6808 31.6058 60.9337 33.0786C62.0829 34.4327 63.7273 34.997 65.6837 34.997C69.0415 34.997 70.9035 32.8379 70.9035 32.8379L70.7354 33.8858C70.672 34.2865 70.9806 34.6458 71.3825 34.6458H74.7795C75.3195 34.6458 75.7756 34.2543 75.8608 33.7211L77.8989 20.8138C77.9634 20.4165 77.656 20.0561 77.2529 20.0561ZM71.9963 27.3958C71.6324 29.5503 69.9224 30.9966 67.7414 30.9966C66.6463 30.9966 65.7712 30.6454 65.2093 29.9798C64.6519 29.3189 64.44 28.3781 64.6174 27.3302C64.9571 25.1941 66.6959 23.7006 68.8434 23.7006C69.9143 23.7006 70.7849 24.0564 71.3583 24.7278C71.9329 25.406 72.1609 26.3526 71.9963 27.3958Z" fill="#253B80"/>
<path d="M97.3376 20.056H93.548C93.1864 20.056 92.8467 20.2357 92.6417 20.5362L87.415 28.2352L85.1995 20.8368C85.0602 20.3738 84.633 20.056 84.1493 20.056H80.4253C79.9728 20.056 79.6584 20.4982 79.8023 20.9243L83.9766 33.1741L80.0522 38.714C79.7436 39.1505 80.0545 39.7504 80.5877 39.7504H84.3727C84.732 39.7504 85.0682 39.5754 85.272 39.2806L97.8765 21.0866C98.1782 20.6514 97.8685 20.056 97.3376 20.056Z" fill="#253B80"/>
<path d="M109.884 12.7716H102.008C101.47 12.7716 101.012 13.1631 100.928 13.6951L97.7426 33.8892C97.6793 34.2877 97.9879 34.6469 98.3898 34.6469H102.432C102.807 34.6469 103.128 34.3729 103.187 33.9998L104.091 28.2756C104.174 27.7425 104.633 27.3509 105.171 27.3509H107.663C112.852 27.3509 115.844 24.8406 116.627 19.8661C116.981 17.6897 116.641 15.9797 115.622 14.7822C114.504 13.4671 112.52 12.7716 109.884 12.7716ZM110.793 20.1471C110.363 22.9729 108.204 22.9729 106.115 22.9729H104.928L105.763 17.6955C105.812 17.3765 106.087 17.1416 106.41 17.1416H106.955C108.376 17.1416 109.718 17.1416 110.412 17.9523C110.825 18.4359 110.951 19.1545 110.793 20.1471Z" fill="#179BD7"/>
<path d="M133.424 20.0561H129.655C129.331 20.0561 129.056 20.291 129.007 20.61L128.841 21.6647L128.576 21.2824C127.759 20.0975 125.94 19.7014 124.123 19.7014C119.955 19.7014 116.397 22.8577 115.704 27.2853C115.345 29.4939 115.855 31.6058 117.108 33.0786C118.259 34.4327 119.901 34.997 121.858 34.997C125.216 34.997 127.078 32.8379 127.078 32.8379L126.909 33.8858C126.846 34.2865 127.155 34.6458 127.559 34.6458H130.955C131.492 34.6458 131.951 34.2543 132.035 33.7211L134.074 20.8138C134.136 20.4165 133.828 20.0561 133.424 20.0561ZM128.167 27.3958C127.805 29.5503 126.093 30.9966 123.912 30.9966C122.819 30.9966 121.942 30.6454 121.38 29.9798C120.823 29.3189 120.613 28.3781 120.788 27.3302C121.13 25.1941 122.866 23.7006 125.014 23.7006C126.085 23.7006 126.956 24.0564 127.529 24.7278C128.106 25.406 128.334 26.3526 128.167 27.3958Z" fill="#179BD7"/>
<path d="M137.869 13.3254L134.637 33.8892C134.574 34.2876 134.882 34.6469 135.284 34.6469H138.534C139.074 34.6469 139.532 34.2554 139.615 33.7222L142.803 13.5292C142.866 13.1308 142.557 12.7704 142.155 12.7704H138.517C138.195 12.7715 137.919 13.0064 137.869 13.3254Z" fill="#179BD7"/>
<path d="M8.86781 38.5713L9.47005 34.746L8.12853 34.7149H1.72266L6.17441 6.48781C6.18823 6.40259 6.23314 6.32314 6.29878 6.26671C6.36441 6.21029 6.44847 6.1792 6.53599 6.1792H17.3372C20.923 6.1792 23.3976 6.92538 24.6896 8.39817C25.2953 9.08908 25.6811 9.81108 25.8676 10.6056C26.0634 11.4393 26.0668 12.4354 25.8757 13.6502L25.8619 13.7389V14.5173L26.4676 14.8605C26.9777 15.1311 27.383 15.4408 27.6939 15.7955C28.2121 16.3862 28.5472 17.137 28.6888 18.0271C28.8351 18.9426 28.7867 20.0319 28.5472 21.2652C28.2708 22.6839 27.824 23.9194 27.2207 24.9305C26.6656 25.862 25.9586 26.6347 25.1191 27.2335C24.3177 27.8024 23.3654 28.2342 22.2887 28.5105C21.2454 28.7823 20.0559 28.9193 18.7513 28.9193H17.9107C17.3096 28.9193 16.7257 29.1358 16.2674 29.5239C15.808 29.92 15.504 30.4612 15.4107 31.0531L15.3474 31.3974L14.2834 38.1395L14.235 38.3871C14.2224 38.4654 14.2005 38.5045 14.1682 38.531C14.1394 38.5552 14.098 38.5713 14.0577 38.5713H8.86781Z" fill="#253B80"/>
<path d="M27.0392 13.8286C27.0069 14.0347 26.9701 14.2455 26.9286 14.4619C25.5042 21.7752 20.631 24.3016 14.407 24.3016H11.2381C10.4769 24.3016 9.83553 24.8544 9.71692 25.6052L8.09443 35.8951L7.63498 38.8119C7.55783 39.3047 7.93783 39.7492 8.43528 39.7492H14.0558C14.7214 39.7492 15.2868 39.2656 15.3916 38.6092L15.4469 38.3236L16.5051 31.608L16.573 31.2395C16.6767 30.5809 17.2432 30.0972 17.9088 30.0972H18.7494C24.1949 30.0972 28.4578 27.8863 29.7038 21.4885C30.2243 18.8158 29.9548 16.5842 28.5776 15.0147C28.1607 14.5414 27.6437 14.1487 27.0392 13.8286Z" fill="#179BD7"/>
<path d="M25.5509 13.2345C25.3333 13.1712 25.1087 13.1136 24.8784 13.0618C24.647 13.0111 24.4098 12.9662 24.1657 12.9271C23.3112 12.7889 22.375 12.7233 21.3721 12.7233H12.9061C12.6977 12.7233 12.4997 12.7705 12.3223 12.8557C11.932 13.0434 11.6418 13.413 11.5715 13.8656L9.77057 25.2725L9.71875 25.6053C9.83736 24.8545 10.4787 24.3018 11.2399 24.3018H14.4089C20.6328 24.3018 25.506 21.7742 26.9304 14.4621C26.973 14.2456 27.0087 14.0348 27.041 13.8287C26.6806 13.6376 26.2902 13.4741 25.8699 13.3347C25.7663 13.3002 25.6592 13.2668 25.5509 13.2345Z" fill="#222D65"/>
<path d="M11.5707 13.8655C11.6409 13.413 11.9311 13.0433 12.3214 12.8568C12.4999 12.7716 12.6968 12.7244 12.9053 12.7244H21.3712C22.3742 12.7244 23.3103 12.79 24.1648 12.9282C24.4089 12.9673 24.6461 13.0122 24.8776 13.0629C25.1079 13.1147 25.3324 13.1723 25.55 13.2356C25.6583 13.2679 25.7654 13.3013 25.8702 13.3347C26.2905 13.474 26.6808 13.6387 27.0413 13.8287C27.465 11.1261 27.0378 9.28594 25.5765 7.6197C23.9656 5.78533 21.058 5 17.3374 5H6.53623C5.77623 5 5.12793 5.55273 5.01047 6.30467L0.511502 34.8219C0.422836 35.3862 0.858108 35.8952 1.42696 35.8952H8.09538L9.76968 25.2724L11.5707 13.8655Z" fill="#253B80"/>
</g>
<defs>
<clipPath id="clip0_510_1301">
<rect width="143" height="48" fill="white" transform="translate(0.5)"/>
</clipPath>
</defs>
</svg>
