<svg width="134" height="48" viewBox="0 0 134 48" fill="none" xmlns="http://www.w3.org/2000/svg">
<g clip-path="url(#clip0_510_1300)">
<path d="M15.385 6H0.75V41L15.385 6Z" fill="#FA0C00"/>
<path d="M25.6816 6H40.2976V41L25.6816 6Z" fill="#FA0C00"/>
<path d="M20.5342 18.8998L29.8491 41H23.7376L20.9537 33.9638H14.1367L20.5342 18.8998Z" fill="#FA0C00"/>
<path d="M64.1746 28.2578L65.9002 33.206C65.9574 33.3299 66.0432 33.3872 66.1958 33.3872H69.5137C69.6948 33.3872 69.7234 33.3013 69.6948 33.1202L62.8398 14.0804C62.8112 13.9279 62.7826 13.8993 62.63 13.8993H58.5112C58.3968 13.8993 58.3301 13.9851 58.3301 14.109C58.2729 15.1101 58.1871 15.4152 58.0631 15.7108L51.9517 33.0916C51.9231 33.3013 51.9899 33.3872 52.1615 33.3872H55.1266C55.3078 33.3872 55.3936 33.3299 55.4603 33.1488L57.0906 28.2578H64.1746ZM58.0345 25.0257C58.9307 22.318 60.113 18.8475 60.5897 16.8644H60.6183C61.2094 18.9429 62.6014 23.0616 63.2307 25.0257H58.0345Z" fill="#FA0C00"/>
<path d="M78.5072 33.6827C80.2901 33.6827 82.1874 33.3585 84.1133 32.5291C84.2658 32.4719 84.2944 32.4051 84.2944 32.2621C84.2372 31.7282 84.1705 30.9559 84.1705 30.3648V12.4405C84.1705 12.3261 84.1705 12.2689 84.0275 12.2689H80.7954C80.6715 12.2689 80.6143 12.3261 80.6143 12.4787V18.552C80.1089 18.4947 79.7562 18.4661 79.3367 18.4661C74.1215 18.4661 70.918 21.908 70.918 26.2079C70.918 31.1943 74.2073 33.6827 78.5072 33.6827ZM80.6142 30.3648C80.0803 30.5364 79.4892 30.6032 78.8886 30.6032C76.5241 30.6032 74.5886 29.2684 74.5886 26.0268C74.5886 23.157 76.5813 21.4599 79.2223 21.4599C79.7562 21.4599 80.2233 21.5171 80.6142 21.6696V30.3648Z" fill="#FA0C00"/>
<path d="M94.6043 18.4661C90.1519 18.4661 87.3965 21.8794 87.3965 26.0935C87.3965 29.8595 89.5893 33.6827 94.5376 33.6827C98.7231 33.6827 101.66 30.6032 101.66 25.9982C101.66 21.9366 99.1712 18.4661 94.6043 18.4661ZM94.4232 21.4599C96.9402 21.4599 98.008 23.6241 98.008 26.0935C98.008 29.1444 96.4349 30.6604 94.6043 30.6604C92.3447 30.6604 91.0099 28.7631 91.0099 26.0268C91.0099 23.2142 92.4305 21.4599 94.4232 21.4599Z" fill="#FA0C00"/>
<path d="M105.001 12.2689C104.877 12.2689 104.791 12.3261 104.791 12.4787V32.7674C104.791 32.8532 104.877 33.0058 105.001 33.0344C106.421 33.4729 107.909 33.6827 109.444 33.6827C113.839 33.6827 118.11 30.9559 118.11 25.4642C118.11 21.4885 115.383 18.4661 111.112 18.4661C110.13 18.4661 109.215 18.6187 108.414 18.8856L108.376 12.5073C108.376 12.2975 108.319 12.2689 108.109 12.2689H105.001ZM114.459 25.8265C114.459 29.1158 112.209 30.6604 109.777 30.6604C109.272 30.6604 108.824 30.6318 108.414 30.5078V21.8508C108.881 21.6696 109.444 21.5171 110.483 21.5171C112.828 21.5171 114.459 23.0044 114.459 25.8265Z" fill="#FA0C00"/>
<path d="M130.174 26.8944C131.623 26.8944 132.815 26.8658 133.225 26.7704C133.378 26.7418 133.435 26.6846 133.464 26.5607C133.549 26.2365 133.587 25.5596 133.587 24.7301C133.587 21.908 131.89 18.4661 127.505 18.4661C123.024 18.4661 120.535 22.1177 120.535 26.2365C120.535 29.8881 122.461 33.6827 127.857 33.6827C129.879 33.6827 131.185 33.3585 132.31 32.8246C132.424 32.7674 132.481 32.6721 132.481 32.5005V30.0311C132.481 29.8881 132.396 29.8595 132.31 29.9167C131.185 30.3934 129.964 30.6318 128.63 30.6318C125.607 30.6318 124.234 28.9633 124.149 26.8944H130.174ZM124.149 24.3392C124.387 22.89 125.302 21.3169 127.352 21.3169C129.612 21.3169 130.203 23.2142 130.203 24.0722C130.203 24.1008 130.203 24.2248 130.203 24.3106C130.079 24.3392 129.697 24.3392 128.572 24.3392H124.149Z" fill="#FA0C00"/>
</g>
<defs>
<clipPath id="clip0_510_1300">
<rect width="133" height="48" fill="white" transform="translate(0.75)"/>
</clipPath>
</defs>
</svg>
